<svg cache-id="0a99c7de13e14bd8a382ac23928491d2" id="eizFl6mDhNb1" xmlns="http://www.w3.org/2000/svg" xmlns:xlink="http://www.w3.org/1999/xlink" viewBox="0 0 1200 848" shape-rendering="geometricPrecision" text-rendering="geometricPrecision"><style><![CDATA[#eizFl6mDhNb14_to {animation: eizFl6mDhNb14_to__to 4000ms linear infinite normal forwards}@keyframes eizFl6mDhNb14_to__to { 0% {offset-distance: 0%} 12.5% {offset-distance: 16.690046%} 25% {offset-distance: 50.021585%} 37.5% {offset-distance: 83.383589%} 50% {offset-distance: 100%} 100% {offset-distance: 100%}} #eizFl6mDhNb14 {animation: eizFl6mDhNb14_c_o 4000ms linear infinite normal forwards}@keyframes eizFl6mDhNb14_c_o { 0% {opacity: 1} 50% {opacity: 1} 52.5% {opacity: 0} 100% {opacity: 0}} #eizFl6mDhNb15_to {animation: eizFl6mDhNb15_to__to 4000ms linear infinite normal forwards}@keyframes eizFl6mDhNb15_to__to { 0% {offset-distance: 0%} 50% {offset-distance: 0%} 62.5% {offset-distance: 16.527079%} 75% {offset-distance: 50.056682%} 87.5% {offset-distance: 83.538163%} 100% {offset-distance: 100%}} #eizFl6mDhNb15 {animation: eizFl6mDhNb15_c_o 4000ms linear infinite normal forwards}@keyframes eizFl6mDhNb15_c_o { 0% {opacity: 0} 47.5% {opacity: 0} 50% {opacity: 1} 100% {opacity: 1}} #eizFl6mDhNb16_to {animation: eizFl6mDhNb16_to__to 4000ms linear infinite normal forwards}@keyframes eizFl6mDhNb16_to__to { 0% {offset-distance: 0%} 12.5% {offset-distance: 16.684597%} 25% {offset-distance: 50.125207%} 37.5% {offset-distance: 83.531592%} 50% {offset-distance: 100%} 100% {offset-distance: 100%}} #eizFl6mDhNb16 {animation: eizFl6mDhNb16_c_o 4000ms linear infinite normal forwards}@keyframes eizFl6mDhNb16_c_o { 0% {opacity: 1} 50% {opacity: 1} 52.5% {opacity: 0} 100% {opacity: 0}} #eizFl6mDhNb17_to {animation: eizFl6mDhNb17_to__to 4000ms linear infinite normal forwards}@keyframes eizFl6mDhNb17_to__to { 0% {offset-distance: 0%} 50% {offset-distance: 0%} 62.5% {offset-distance: 16.525531%} 75% {offset-distance: 49.961906%} 87.5% {offset-distance: 83.371638%} 100% {offset-distance: 100%}} #eizFl6mDhNb17 {animation: eizFl6mDhNb17_c_o 4000ms linear infinite normal forwards}@keyframes eizFl6mDhNb17_c_o { 0% {opacity: 0} 47.5% {opacity: 0} 50% {opacity: 1} 100% {opacity: 1}}]]></style><g opacity="0.3" clip-rule="evenodd"><g clip-rule="evenodd"><g clip-rule="evenodd"><g clip-rule="evenodd"><path d="M806,317c33,30,36,82,6,115-30,34-81,36-115,6-33-30-36-81-6-114c30-34,81-36,115-7Z" clip-rule="evenodd" fill="#0053ba" fill-rule="evenodd"/></g><g clip-rule="evenodd"><path d="M506,603c-59,3-118-18-162-58-93-83-100-225-17-318c83-92,225-100,318-17c44,40,71,96,74,156" clip-rule="evenodd" fill="none" fill-rule="evenodd" stroke="#0053ba" stroke-width="85.0566" stroke-linecap="round" stroke-linejoin="round"/></g></g><g clip-rule="evenodd"><g clip-rule="evenodd"><path d="M440,438c-33-30-36-81-6-114c30-34,81-37,115-7c33,30,36,82,6,115s-82,36-115,6Z" clip-rule="evenodd" fill="#039" fill-rule="evenodd"/></g><g clip-rule="evenodd"><path d="M739,153c60-3,119,18,163,57c92,83,100,226,17,318-83,93-225,100-318,17-44-40-71-95-74-155" clip-rule="evenodd" fill="none" fill-rule="evenodd" stroke="#039" stroke-width="82.756" stroke-linecap="round" stroke-linejoin="round"/></g></g></g></g><g id="eizFl6mDhNb14_to" style="offset-path:path('M739,153C799,150,858,171,902,210C994,293,1002,436,919,528C836,621,694,628,601,545C557,505,530,450,527,390');offset-rotate:0deg"><ellipse id="eizFl6mDhNb14" rx="49.854213" ry="49.854213" transform="scale(0.780924,0.780924) translate(0.000001,0)" fill="#039" stroke-width="0"/></g><g id="eizFl6mDhNb15_to" style="offset-path:path('M527,390Q536.682053,492.728754,601,545C700.067649,641.813622,845.213142,617.062178,919,528C1015.595982,424,990.268803,283.20391,902,210Q832.745178,155.027221,739,153');offset-rotate:0deg"><ellipse id="eizFl6mDhNb15" rx="49.854213" ry="49.854213" transform="scale(0.780924,0.780924) translate(0.000001,0)" opacity="0" fill="#039" stroke-width="0"/></g><g id="eizFl6mDhNb16_to" style="offset-path:path('M506,603C447,606,388,585,344,545C251,462,244,320,327,227C410,135,552,127,645,210C653.582636,217.802396,716.58518,317.703594,719,366');offset-rotate:auto"><ellipse id="eizFl6mDhNb16" rx="49.854213" ry="49.854213" transform="scale(0.780924,0.780924) translate(0.000001,0)" fill="#0053ba" stroke-width="0"/></g><g id="eizFl6mDhNb17_to" style="offset-path:path('M719,366Q700.157481,271.691556,645,210C541.286995,122.030953,413.254822,138.148249,327,227C246.570731,325.172035,248.873202,459.092926,344,545Q413.254822,603.28241,506,603');offset-rotate:auto"><ellipse id="eizFl6mDhNb17" rx="49.854213" ry="49.854213" transform="scale(0.780924,0.780924) translate(0.000001,0)" opacity="0" fill="#0053ba" stroke-width="0"/></g></svg>