<svg id="Layer_1" data-name="Layer 1" xmlns="http://www.w3.org/2000/svg" viewBox="0 0 640.85 223.79"><defs><style>.cls-1,.cls-2{fill:#00abb7;}.cls-2{stroke:#00abb7;stroke-miterlimit:10;}</style></defs><path class="cls-1" d="M640.28,329.08l-6.68,12.05-1.3-.7a11.71,11.71,0,0,0,.79-2.61q0-1.41-3.45-3a46.44,46.44,0,0,0-19.88-4.38,33.12,33.12,0,0,0-15,3.21,13.32,13.32,0,0,0-4.87,4.1,9,9,0,0,0-1.8,5.31,7.75,7.75,0,0,0,1.4,4.4,8.55,8.55,0,0,0,3.69,3.09,20.09,20.09,0,0,0,6,1.61c2.28.29,6,.52,11.17.67a152.49,152.49,0,0,1,15.35,1,22,22,0,0,1,7.61,2.35,14.49,14.49,0,0,1,7.93,13.49A17,17,0,0,1,634,383.78q-8,6.15-22,6.16a54,54,0,0,1-14.09-1.64,72.55,72.55,0,0,1-14.38-6,12.54,12.54,0,0,0-2.75-1.07c-.46,0-1.2.56-2.19,1.68l-1.26-.79,7-11.71,1.3.74a7.73,7.73,0,0,0-.88,2.52q0,1.5,6,4.62a47.08,47.08,0,0,0,10.34,4,44.85,44.85,0,0,0,10.8,1.23q11.8,0,17.92-5.17a10.5,10.5,0,0,0,4.06-8.22q0-6.25-7-8.63a18.64,18.64,0,0,0-4.64-1q-2.4-.21-13.65-.63A86.77,86.77,0,0,1,596,358.67a26.52,26.52,0,0,1-8.1-2.89,13.74,13.74,0,0,1-5.25-5.23,14.39,14.39,0,0,1-1.94-7.32,15.61,15.61,0,0,1,5-11.62A25.91,25.91,0,0,1,596.09,326a48.79,48.79,0,0,1,14.42-2,52.89,52.89,0,0,1,11.87,1.27,69.23,69.23,0,0,1,12.39,4.37,7.58,7.58,0,0,0,1.91.66c.56,0,1.32-.62,2.29-1.88Z" transform="translate(-362.73 -271.65)"/><path class="cls-1" d="M705.93,359.09H662.3v24.22a4.78,4.78,0,0,0,.58,2.75,4.24,4.24,0,0,0,2.41,1.26v1.5H652v-1.5a4.24,4.24,0,0,0,2.4-1.26,4.78,4.78,0,0,0,.58-2.75V330.63a4.85,4.85,0,0,0-.6-2.78,4.11,4.11,0,0,0-2.38-1.23v-1.5h13.3v1.5a4.28,4.28,0,0,0-2.38,1.26,4.61,4.61,0,0,0-.61,2.75V353h43.63v-22.4a4.76,4.76,0,0,0-.61-2.78,4.07,4.07,0,0,0-2.38-1.23v-1.5h13.3v1.5a4.32,4.32,0,0,0-2.38,1.26,4.69,4.69,0,0,0-.61,2.75v52.68a4.7,4.7,0,0,0,.61,2.73,4.2,4.2,0,0,0,2.38,1.28v1.5h-13.3v-1.5a4.32,4.32,0,0,0,2.38-1.26,4.59,4.59,0,0,0,.61-2.75Z" transform="translate(-362.73 -271.65)"/><path class="cls-1" d="M775.43,371H741.36L735.76,383a7.05,7.05,0,0,0-.79,2.43q0,1.4,2.76,1.86v1.5H723.52v-1.5a4.94,4.94,0,0,0,2.92-1.4,20.08,20.08,0,0,0,2.63-4.66l23.33-50.35a7.62,7.62,0,0,0,.84-2.47c0-.81-.76-1.42-2.28-1.82v-1.5h15.49v1.5c-1.53.5-2.29,1.15-2.29,2a8.05,8.05,0,0,0,.84,2.33l22.35,48.53a40.52,40.52,0,0,0,3.27,6.3,6.81,6.81,0,0,0,3.45,1.58v1.5H779v-1.5c1.81-.24,2.72-.93,2.72-2.05a8.68,8.68,0,0,0-1-2.89Zm-2.69-6.07-14.35-31.47-14.32,31.47Z" transform="translate(-362.73 -271.65)"/><path class="cls-1" d="M811,360.17v23.15a4.61,4.61,0,0,0,.61,2.72,4.16,4.16,0,0,0,2.38,1.28v1.5H800.7v-1.5a4.35,4.35,0,0,0,2.38-1.26,4.68,4.68,0,0,0,.6-2.75V330.63a4.85,4.85,0,0,0-.6-2.78,4.11,4.11,0,0,0-2.38-1.23v-1.5h34.95a64.86,64.86,0,0,1,11.36.78,20.7,20.7,0,0,1,7.26,2.68A15,15,0,0,1,859.4,334a17.14,17.14,0,0,1,2.24,8.73,15.67,15.67,0,0,1-4.83,11.89q-4.83,4.6-13.28,5.26L859.73,385a4.62,4.62,0,0,0,4.19,2.33v1.5H849.18v-1.5c1.53-.24,2.29-.68,2.29-1.3a11.8,11.8,0,0,0-1.63-3l-14.48-22.82Zm0-6.07h25.8a53.67,53.67,0,0,0,8-.44,14.26,14.26,0,0,0,4.74-1.61q4.8-2.81,4.8-9.38t-4.94-9.43a14.71,14.71,0,0,0-4.88-1.63,59.4,59.4,0,0,0-8.33-.42H811Z" transform="translate(-362.73 -271.65)"/><path class="cls-1" d="M884.46,359.09v23.66h40.83a4.73,4.73,0,0,0,2.77-.61,4,4,0,0,0,1.24-2.37h1.49v12H929.3a4.3,4.3,0,0,0-1.28-2.38,4.85,4.85,0,0,0-2.78-.6h-51.1v-1.5a4.24,4.24,0,0,0,2.41-1.26,4.78,4.78,0,0,0,.58-2.75V330.63a4.61,4.61,0,0,0-.61-2.75,4.28,4.28,0,0,0-2.38-1.26v-1.5h50.54a4.71,4.71,0,0,0,2.75-.59,4.31,4.31,0,0,0,1.26-2.39h1.49v12h-1.49a4.11,4.11,0,0,0-1.23-2.37,4.75,4.75,0,0,0-2.78-.62H884.46V353h26.36a4.76,4.76,0,0,0,2.78-.61,4.07,4.07,0,0,0,1.23-2.38h1.5v12h-1.5a4.11,4.11,0,0,0-1.23-2.38,4.84,4.84,0,0,0-2.78-.61Z" transform="translate(-362.73 -271.65)"/><path class="cls-1" d="M1002.7,329.08,996,341.13l-1.3-.7a11.15,11.15,0,0,0,.79-2.61q0-1.41-3.45-3a46.41,46.41,0,0,0-19.88-4.38,33.05,33.05,0,0,0-15,3.21,13.35,13.35,0,0,0-4.88,4.1,9,9,0,0,0-1.8,5.31,7.75,7.75,0,0,0,1.4,4.4,8.61,8.61,0,0,0,3.69,3.09,20.09,20.09,0,0,0,5.95,1.61c2.28.29,6,.52,11.17.67a153,153,0,0,1,15.36,1,22,22,0,0,1,7.6,2.35,14.49,14.49,0,0,1,7.93,13.49,17,17,0,0,1-7.18,14.14q-8,6.15-22,6.16a54,54,0,0,1-14.09-1.64,72.5,72.5,0,0,1-14.37-6,12.73,12.73,0,0,0-2.76-1.07c-.46,0-1.2.56-2.19,1.68l-1.26-.79,7-11.71,1.31.74a7.59,7.59,0,0,0-.89,2.52q0,1.5,6,4.62a47.27,47.27,0,0,0,10.34,4,44.85,44.85,0,0,0,10.8,1.23q11.81,0,17.92-5.17a10.5,10.5,0,0,0,4.06-8.22q0-6.25-7-8.63a18.64,18.64,0,0,0-4.64-1q-2.4-.21-13.65-.63a86.77,86.77,0,0,1-12.57-1.22,26.71,26.71,0,0,1-8.1-2.89,13.74,13.74,0,0,1-5.25-5.23,14.38,14.38,0,0,1-1.93-7.32,15.58,15.58,0,0,1,5-11.62A25.8,25.8,0,0,1,958.51,326a48.79,48.79,0,0,1,14.42-2,52.89,52.89,0,0,1,11.87,1.27,69.23,69.23,0,0,1,12.39,4.37,7.58,7.58,0,0,0,1.91.66c.56,0,1.33-.62,2.29-1.88Z" transform="translate(-362.73 -271.65)"/><path class="cls-2" d="M603.35,426.26H584.8V400.57h17.92v1.88h-16V412h15v1.88h-15v10.55h16.67Z" transform="translate(-362.73 -271.65)"/><path class="cls-2" d="M644.63,416.57H630.54v-2h14.09Z" transform="translate(-362.73 -271.65)"/><path class="cls-2" d="M693.37,426.26h-2.06l-2.56-6.83a17.5,17.5,0,0,0-.83-1.85,6.88,6.88,0,0,0-1.07-1.52,4.75,4.75,0,0,0-1.39-1,4.27,4.27,0,0,0-1.85-.37h-9v11.59h-1.87V400.57h11.56a16.05,16.05,0,0,1,3.13.3,7.64,7.64,0,0,1,2.7,1A5.37,5.37,0,0,1,692,404a7.28,7.28,0,0,1,.7,3.38,8.78,8.78,0,0,1-.32,2.41,6.13,6.13,0,0,1-1,2,5.77,5.77,0,0,1-1.64,1.5,7.1,7.1,0,0,1-2.34.91,8.21,8.21,0,0,1,1.2,1.08,6.63,6.63,0,0,1,.81,1.1,8.56,8.56,0,0,1,.61,1.29l.62,1.62Zm-18.74-13.47h8.91a16.09,16.09,0,0,0,3.26-.28,5.53,5.53,0,0,0,2.24-.93,3.73,3.73,0,0,0,1.31-1.67,6.75,6.75,0,0,0,.42-2.54,4.23,4.23,0,0,0-1.68-3.78,9,9,0,0,0-5-1.14h-9.45Z" transform="translate(-362.73 -271.65)"/><path class="cls-2" d="M738.78,426.26H720.23V400.57h17.92v1.88h-16V412h15v1.88h-15v10.55h16.68Z" transform="translate(-362.73 -271.65)"/><path class="cls-2" d="M776.64,426.72a12.71,12.71,0,0,1-5-1,11.09,11.09,0,0,1-3.88-2.71,12.06,12.06,0,0,1-2.5-4.22,16.23,16.23,0,0,1-.88-5.5,16,16,0,0,1,.89-5.49,12.13,12.13,0,0,1,2.5-4.16,10.93,10.93,0,0,1,3.83-2.65,12.7,12.7,0,0,1,4.93-.93,14.21,14.21,0,0,1,3.94.53,11.33,11.33,0,0,1,3.26,1.5,9.1,9.1,0,0,1,2.37,2.34,8.4,8.4,0,0,1,1.29,3h-2a5,5,0,0,0-.9-2.12,6.84,6.84,0,0,0-1.87-1.75,9.61,9.61,0,0,0-2.67-1.19,11.8,11.8,0,0,0-3.35-.45,11.2,11.2,0,0,0-4.13.73,8.5,8.5,0,0,0-3.23,2.17,10,10,0,0,0-2.1,3.56,16.32,16.32,0,0,0,0,9.78,10.44,10.44,0,0,0,2.1,3.63,8.86,8.86,0,0,0,3.24,2.24,11.16,11.16,0,0,0,4.16.76,11.91,11.91,0,0,0,5.54-1.22,11.57,11.57,0,0,0,4-3.38v-4.62H779v-1.88h9v12.51h-1.08l-.82-3.43a9.62,9.62,0,0,1-2,1.82,11.11,11.11,0,0,1-2.29,1.2,13.14,13.14,0,0,1-2.52.66A17,17,0,0,1,776.64,426.72Z" transform="translate(-362.73 -271.65)"/><path class="cls-2" d="M817.8,426.26h-1.88V400.57h1.88Z" transform="translate(-362.73 -271.65)"/><path class="cls-2" d="M855.8,426.72a16.75,16.75,0,0,1-4.56-.55A9.57,9.57,0,0,1,848,424.6a7,7,0,0,1-2-2.46,8.6,8.6,0,0,1-.82-3.25H847a7,7,0,0,0,1,2.89,6.17,6.17,0,0,0,1.91,1.83,8.08,8.08,0,0,0,2.59,1,17,17,0,0,0,3.1.28,12.11,12.11,0,0,0,3.08-.36,7.37,7.37,0,0,0,2.35-1.06,4.73,4.73,0,0,0,1.49-1.67,4.63,4.63,0,0,0,.52-2.19,4.74,4.74,0,0,0-.45-2.17,4,4,0,0,0-1.5-1.53,11.7,11.7,0,0,0-2.78-1.18c-1.15-.34-2.58-.69-4.28-1.05a24.44,24.44,0,0,1-3.62-1.08,9.49,9.49,0,0,1-2.5-1.42,5.21,5.21,0,0,1-1.46-1.85,6,6,0,0,1-.47-2.43,5.83,5.83,0,0,1,.64-2.74,6.31,6.31,0,0,1,1.79-2.14,8.67,8.67,0,0,1,2.79-1.38,12.38,12.38,0,0,1,3.6-.5,13.69,13.69,0,0,1,3.62.46,9.36,9.36,0,0,1,2.87,1.33,7,7,0,0,1,2,2.11,7.23,7.23,0,0,1,1,2.81h-1.81a5.91,5.91,0,0,0-.85-1.92,5.53,5.53,0,0,0-1.51-1.54,7.56,7.56,0,0,0-2.2-1A10.86,10.86,0,0,0,855,402a8.9,8.9,0,0,0-5.22,1.27,4,4,0,0,0-1.77,3.47,4.35,4.35,0,0,0,.33,1.76,3.41,3.41,0,0,0,1.11,1.35,7.74,7.74,0,0,0,2.08,1.05,24.82,24.82,0,0,0,3.21.86l2.32.49c.8.17,1.58.38,2.33.61a12.93,12.93,0,0,1,2.17.87,6.91,6.91,0,0,1,1.8,1.26,5.72,5.72,0,0,1,1.22,1.8,6.19,6.19,0,0,1,.46,2.47,6.64,6.64,0,0,1-.7,3,7.28,7.28,0,0,1-1.92,2.37,9,9,0,0,1-2.93,1.54A11.89,11.89,0,0,1,855.8,426.72Z" transform="translate(-362.73 -271.65)"/><path class="cls-2" d="M909.46,402.45h-9v23.81H898.6V402.45h-8.89v-1.88h19.75Z" transform="translate(-362.73 -271.65)"/><path class="cls-2" d="M955.78,426.26h-2.06l-2.56-6.83a17.5,17.5,0,0,0-.83-1.85,6.88,6.88,0,0,0-1.07-1.52,4.75,4.75,0,0,0-1.39-1,4.26,4.26,0,0,0-1.84-.37h-9v11.59h-1.87V400.57h11.56a16.05,16.05,0,0,1,3.13.3,7.64,7.64,0,0,1,2.7,1,5.37,5.37,0,0,1,1.89,2.08,7.28,7.28,0,0,1,.7,3.38,8.78,8.78,0,0,1-.32,2.41,6.13,6.13,0,0,1-1,2,5.77,5.77,0,0,1-1.64,1.5,7.1,7.1,0,0,1-2.34.91,8.21,8.21,0,0,1,1.2,1.08,6.63,6.63,0,0,1,.81,1.1,8.56,8.56,0,0,1,.61,1.29l.62,1.62ZM937,412.79H946a16,16,0,0,0,3.25-.28,5.64,5.64,0,0,0,2.25-.93,3.86,3.86,0,0,0,1.3-1.67,6.75,6.75,0,0,0,.42-2.54,4.23,4.23,0,0,0-1.68-3.78,9,9,0,0,0-5-1.14H937Z" transform="translate(-362.73 -271.65)"/><path class="cls-2" d="M1002.43,400.57l-10,14.66v11h-1.87v-11l-10.13-14.66h2.2l8.87,12.69,8.79-12.69Z" transform="translate(-362.73 -271.65)"/><path class="cls-1" d="M388.53,341.51l72.31,41.76,80.21-46.59-80.21-47.62-81.47,47.11-1.53,94.71,83,47.36L558.62,422V440.3l-92.43,53.29a10.16,10.16,0,0,1-11.63,0l-91.83-53.37V327.51l93-54.66s7-3,11.14.49l91.73,53.91v18.08l-97.78,56.53-72-42.52Z" transform="translate(-362.73 -271.65)"/><polygon class="cls-1" points="195.88 86.93 98.11 143.45 25.8 101.19 25.8 118.75 97.94 161.53 195.88 103.73 195.88 86.93"/><polygon class="cls-1" points="195.88 119.77 98.11 175.02 25.8 133.78 25.8 151.34 97.94 192.59 195.88 136.32 195.88 119.77"/></svg>