<?xml version="1.0" encoding="UTF-8"?>
<!DOCTYPE svg PUBLIC "-//W3C//DTD SVG 1.0//EN" "http://www.w3.org/TR/2001/REC-SVG-20010904/DTD/svg10.dtd">
<!-- Creator: CorelDRAW X7 -->
<svg xmlns="http://www.w3.org/2000/svg" xml:space="preserve" width="1600px" height="437px" version="1.0" style="shape-rendering:geometricPrecision; text-rendering:geometricPrecision; image-rendering:optimizeQuality; fill-rule:evenodd; clip-rule:evenodd"
viewBox="0 0 1642 448"
 xmlns:xlink="http://www.w3.org/1999/xlink">
 <defs>
  <style type="text/css">
   <![CDATA[
    .str0 {stroke:#00AFEF;stroke-width:11.1102;stroke-linecap:round;stroke-linejoin:round}
    .fil1 {fill:none;fill-rule:nonzero}
    .fil0 {fill:#333333}
    .fil2 {fill:#00AFEF;fill-rule:nonzero}
   ]]>
  </style>
 </defs>
 <g id="Layer_x0020_1">
  <metadata id="CorelCorpID_0Corel-Layer"/>
  <rect class="fil0" width="448" height="448" rx="94" ry="94"/>
  <polygon class="fil1 str0" points="329,75 329,266 329,278 320,287 242,365 233,373 221,373 149,373 120,373 120,344 120,217 164,172 248,172 178,241 178,314 209,314 270,254 270,75 "/>
  <g id="_1649809686144">
   <polygon class="fil2" points="723,173 723,138 794,138 794,173 "/>
   <path id="1" class="fil2" d="M867 226c-11,0 -22,-1 -32,-4 -11,-3 -19,-6 -26,-10l14 -31c6,4 13,7 22,9 8,2 16,3 24,3 7,0 13,-1 16,-2 3,-2 4,-4 4,-7 0,-2 -1,-4 -4,-5 -3,-2 -7,-3 -11,-3 -5,-1 -10,-2 -15,-2 -6,-1 -11,-2 -17,-4 -5,-1 -10,-3 -15,-6 -4,-3 -8,-7 -11,-11 -3,-5 -4,-11 -4,-19 0,-8 2,-15 7,-22 5,-6 12,-12 22,-15 9,-4 21,-6 35,-6 9,0 18,1 27,3 10,2 18,4 24,8l-14 31c-6,-4 -12,-6 -19,-7 -6,-2 -12,-2 -18,-2 -8,0 -13,0 -16,2 -4,2 -5,4 -5,7 0,2 1,4 4,6 3,1 6,2 11,3 5,0 10,1 15,2 5,1 11,2 16,3 6,2 11,4 16,7 4,2 8,6 11,11 2,5 4,11 4,18 0,8 -3,15 -8,22 -5,6 -12,11 -21,15 -10,4 -22,6 -36,6z"/>
   <path id="2" class="fil2" d="M1036 91c11,0 20,2 28,6 8,4 14,11 19,19 5,9 7,20 7,33l0 75 -45 0 0 -67c0,-10 -2,-17 -6,-21 -4,-4 -9,-6 -16,-6 -5,0 -9,1 -13,3 -4,2 -7,6 -9,10 -3,5 -4,10 -4,18l0 63 -46 0 0 -179 46 0 0 85 -10 -11c5,-9 11,-16 20,-21 9,-5 18,-7 29,-7z"/>
   <path id="3" class="fil2" d="M1199 224l0 -25 -3 -6 0 -44c0,-8 -3,-13 -7,-17 -5,-4 -12,-6 -21,-6 -6,0 -13,1 -19,3 -7,2 -12,5 -17,8l-15 -31c7,-5 16,-8 27,-11 10,-3 20,-4 31,-4 21,0 37,5 49,15 11,9 17,25 17,45l0 73 -42 0zm-39 2c-10,0 -19,-2 -26,-5 -8,-4 -13,-9 -17,-15 -4,-6 -5,-13 -5,-20 0,-8 2,-15 6,-21 4,-6 10,-11 19,-14 8,-3 19,-4 33,-4l30 0 0 23 -24 0c-8,0 -13,2 -16,4 -3,3 -4,6 -4,10 0,4 1,7 4,9 3,3 8,4 13,4 5,0 9,-1 13,-4 5,-2 8,-6 10,-11l6 17c-3,9 -7,15 -14,20 -7,5 -16,7 -28,7z"/>
   <path id="4" class="fil2" d="M1270 224l0 -131 44 0 0 38 -7 -11c4,-9 10,-17 19,-22 9,-5 19,-7 32,-7l0 41c-3,0 -4,0 -6,0 -1,0 -3,-1 -5,-1 -9,0 -17,3 -22,8 -6,5 -9,13 -9,25l0 60 -46 0z"/>
   <path id="5" class="fil2" d="M1443 226c-15,0 -28,-3 -40,-9 -11,-6 -20,-14 -27,-24 -6,-10 -9,-22 -9,-35 0,-13 3,-24 9,-35 6,-10 15,-18 26,-23 11,-6 23,-9 37,-9 12,0 24,3 35,8 10,5 19,13 25,23 6,10 9,22 9,37 0,1 0,3 0,5 0,2 0,4 0,6l-104 0 0 -24 79 0 -17 7c0,-6 -1,-11 -3,-16 -2,-4 -6,-7 -10,-10 -4,-2 -9,-3 -14,-3 -6,0 -10,1 -14,3 -5,3 -8,6 -10,10 -2,5 -3,10 -3,16l0 7c0,6 1,12 4,17 2,4 6,8 11,10 5,3 11,4 18,4 6,0 12,-1 16,-3 5,-2 10,-5 14,-8l24 25c-6,7 -14,12 -23,15 -9,4 -20,6 -33,6z"/>
   <path id="6" class="fil2" d="M1577 226c-11,0 -22,-1 -32,-4 -11,-3 -19,-6 -26,-10l14 -31c6,4 13,7 21,9 9,2 17,3 25,3 7,0 13,-1 16,-2 2,-2 4,-4 4,-7 0,-2 -1,-4 -4,-5 -3,-2 -7,-3 -11,-3 -5,-1 -10,-2 -15,-2 -6,-1 -11,-2 -17,-4 -5,-1 -10,-3 -15,-6 -5,-3 -8,-7 -11,-11 -3,-5 -4,-11 -4,-19 0,-8 2,-15 7,-22 5,-6 12,-12 22,-15 9,-4 21,-6 34,-6 10,0 19,1 28,3 10,2 18,4 24,8l-14 31c-6,-4 -13,-6 -19,-7 -6,-2 -12,-2 -18,-2 -8,0 -13,0 -17,2 -3,2 -4,4 -4,7 0,2 1,4 4,6 3,1 6,2 11,3 4,0 9,1 15,2 5,1 11,2 16,3 6,2 11,4 16,7 4,2 8,6 10,11 3,5 5,11 5,18 0,8 -3,15 -8,22 -5,6 -12,11 -21,15 -10,4 -22,6 -36,6z"/>
   <polygon class="fil2" points="692,42 692,158 692,166 686,171 639,218 634,224 626,224 583,224 565,224 565,206 565,129 592,101 642,101 601,143 601,188 619,188 656,151 656,42 "/>
   <path class="fil2" d="M565 391l0 -92 35 0c8,0 15,2 21,4 5,3 10,6 13,11 3,5 4,11 4,17 0,7 -1,12 -4,17 -3,5 -8,9 -13,11 -6,3 -13,4 -21,4l-28 0 6 -6 0 34 -13 0zm61 0l-24 -33 14 0 24 33 -14 0zm-48 -33l-6 -6 28 0c8,0 15,-2 19,-6 4,-3 6,-8 6,-15 0,-6 -2,-11 -6,-15 -4,-3 -11,-5 -19,-5l-28 0 6 -7 0 54zm153 -19l47 0 0 11 -47 0 0 -11zm2 40l53 0 0 12 -66 0 0 -92 64 0 0 12 -51 0 0 68zm175 13c-7,0 -14,-2 -19,-4 -6,-2 -12,-5 -16,-10 -4,-4 -8,-9 -10,-14 -2,-6 -4,-12 -4,-19 0,-7 2,-13 4,-19 2,-5 6,-10 10,-14 5,-5 10,-8 16,-10 6,-2 12,-4 19,-4 7,0 14,2 20,4 6,2 11,6 15,10l-8 9c-4,-4 -8,-7 -12,-9 -4,-1 -9,-2 -14,-2 -5,0 -10,1 -15,3 -4,1 -8,4 -11,7 -4,3 -6,7 -8,11 -2,4 -3,9 -3,14 0,5 1,10 3,14 2,4 4,8 8,11 3,3 7,6 11,7 5,2 9,3 15,3 4,0 9,-1 14,-2 4,-2 8,-4 12,-8l7 10c-4,4 -9,7 -15,9 -6,2 -13,3 -19,3zm22 -14l0 -34 12 0 0 36 -12 -2zm97 13l0 -92 13 0 0 92 -13 0zm127 1c-6,0 -13,-1 -19,-4 -7,-2 -12,-4 -15,-8l4 -10c4,3 8,6 14,8 5,2 11,3 16,3 6,0 10,-1 13,-2 4,-1 6,-3 8,-5 1,-2 2,-5 2,-8 0,-3 -1,-5 -3,-7 -2,-2 -5,-4 -8,-5 -3,-1 -7,-2 -11,-3 -4,-1 -8,-2 -12,-3 -3,-1 -7,-2 -10,-4 -4,-2 -6,-5 -8,-8 -2,-3 -3,-7 -3,-12 0,-4 1,-9 4,-13 2,-4 6,-7 11,-9 5,-2 12,-4 20,-4 5,0 10,1 15,2 6,2 10,4 14,6l-4 11c-4,-3 -8,-5 -13,-6 -4,-1 -8,-2 -12,-2 -5,0 -10,1 -13,2 -3,2 -6,3 -7,6 -2,2 -2,4 -2,7 0,3 1,6 3,8 2,1 4,3 8,4 3,1 6,2 10,3 4,1 8,2 12,3 4,1 8,3 11,5 3,2 6,4 8,7 2,3 3,7 3,12 0,4 -1,9 -4,13 -2,3 -6,7 -12,9 -5,2 -12,4 -20,4zm132 -1l0 -80 -32 0 0 -12 76 0 0 12 -31 0 0 80 -13 0zm118 0l0 -92 36 0c8,0 15,2 20,4 6,3 10,6 13,11 3,5 5,11 5,17 0,7 -2,12 -5,17 -3,5 -7,9 -13,11 -5,3 -12,4 -20,4l-29 0 6 -6 0 34 -13 0zm61 0l-23 -33 14 0 23 33 -14 0zm-48 -33l-6 -6 28 0c9,0 15,-2 19,-6 5,-3 7,-8 7,-15 0,-6 -2,-11 -7,-15 -4,-3 -10,-5 -19,-5l-28 0 6 -7 0 54zm163 33l0 -35 3 8 -40 -65 14 0 33 55 -7 0 33 -55 13 0 -39 65 3 -8 0 35 -13 0z"/>
  </g>
 </g>
</svg>
