<?xml version="1.0" encoding="UTF-8"?>
<!DOCTYPE svg PUBLIC "-//W3C//DTD SVG 1.0//EN" "http://www.w3.org/TR/2001/REC-SVG-20010904/DTD/svg10.dtd">
<!-- Creator: CorelDRAW X7 -->
<svg xmlns="http://www.w3.org/2000/svg" xml:space="preserve" width="1200px" height="318px" version="1.0" style="shape-rendering:geometricPrecision; text-rendering:geometricPrecision; image-rendering:optimizeQuality; fill-rule:evenodd; clip-rule:evenodd"
viewBox="0 0 4651 1232"
 xmlns:xlink="http://www.w3.org/1999/xlink">
 <defs>
  <style type="text/css">
   <![CDATA[
    .str0 {stroke:#00AFEF;stroke-width:30.5438;stroke-linecap:round;stroke-linejoin:round}
    .fil1 {fill:none;fill-rule:nonzero}
    .fil0 {fill:#333333}
    .fil3 {fill:#00AFEF;fill-rule:nonzero}
    .fil2 {fill:#004F81;fill-rule:nonzero}
   ]]>
  </style>
 </defs>
 <g id="Layer_x0020_1">
  <metadata id="CorelCorpID_0Corel-Layer"/>
  <rect class="fil0" width="1232" height="1232" rx="259" ry="259"/>
  <polygon class="fil1 str0" points="904,206 904,731 904,764 880,788 665,1003 641,1027 608,1027 410,1027 329,1027 329,946 329,596 452,472 681,472 491,662 491,864 575,864 741,698 741,206 "/>
  <g id="_1603342102240">
   <path class="fil2" d="M2405 610c-32,0 -63,-4 -93,-12 -31,-7 -55,-16 -74,-28l40 -90c17,10 38,19 62,25 24,6 47,10 70,10 22,0 37,-3 46,-7 9,-5 13,-11 13,-19 0,-8 -4,-13 -12,-17 -8,-3 -19,-6 -32,-8 -14,-1 -28,-4 -44,-6 -16,-2 -32,-5 -48,-9 -16,-4 -30,-10 -44,-18 -13,-9 -24,-20 -32,-34 -7,-14 -11,-31 -11,-53 0,-24 7,-45 21,-64 14,-19 35,-34 62,-45 28,-11 61,-16 101,-16 26,0 53,2 81,8 27,5 50,13 68,24l-40 90c-18,-11 -37,-18 -55,-22 -19,-4 -37,-6 -53,-6 -23,0 -38,2 -48,8 -9,5 -13,11 -13,18 0,8 4,14 12,18 8,3 18,7 31,9 14,2 28,4 44,6 16,2 32,5 48,9 16,4 31,11 44,19 13,8 24,19 32,33 8,13 12,31 12,52 0,24 -8,45 -22,63 -14,19 -35,34 -63,45 -27,11 -62,17 -103,17z"/>
   <path id="1" class="fil2" d="M2896 219c30,0 56,6 80,17 23,12 42,31 56,55 14,25 21,57 21,96l0 216 -133 0 0 -194c0,-27 -6,-47 -16,-59 -11,-13 -27,-19 -46,-19 -14,0 -27,3 -39,9 -11,7 -20,16 -27,29 -6,13 -10,30 -10,51l0 183 -132 0 0 -518 132 0 0 247 -30 -31c14,-27 34,-48 59,-62 25,-13 54,-20 85,-20z"/>
   <path id="2" class="fil2" d="M3367 603l0 -70 -9 -18 0 -130c0,-20 -7,-37 -20,-48 -12,-11 -33,-17 -61,-17 -18,0 -36,3 -55,9 -18,5 -34,13 -47,24l-45 -90c21,-14 47,-25 77,-33 30,-7 60,-11 90,-11 61,0 109,14 143,42 33,28 50,72 50,132l0 210 -123 0zm-112 7c-30,0 -56,-6 -77,-16 -21,-10 -37,-24 -48,-42 -11,-17 -16,-37 -16,-59 0,-23 6,-43 18,-60 12,-17 30,-30 55,-39 24,-10 56,-14 95,-14l90 0 0 69 -72 0c-21,0 -36,4 -45,10 -8,7 -13,17 -13,28 0,12 5,21 14,28 9,7 21,11 36,11 14,0 28,-4 39,-11 12,-7 21,-18 27,-33l18 49c-7,26 -21,45 -41,59 -20,13 -47,20 -80,20z"/>
   <path id="3" class="fil2" d="M3574 603l0 -378 126 0 0 110 -19 -31c12,-29 30,-50 55,-64 25,-14 56,-21 91,-21l0 119c-6,-1 -11,-1 -15,-2 -5,0 -10,0 -15,0 -27,0 -49,7 -65,22 -17,15 -25,38 -25,71l0 174 -133 0z"/>
   <path id="4" class="fil2" d="M4077 610c-45,0 -84,-9 -117,-26 -34,-17 -59,-40 -78,-70 -18,-29 -27,-63 -27,-101 0,-37 9,-71 26,-100 18,-30 43,-53 75,-70 31,-16 67,-24 107,-24 37,0 71,7 102,22 30,15 55,38 73,67 18,29 27,65 27,107 0,4 0,10 -1,16 0,6 -1,12 -1,17l-300 0 0 -70 229 0 -50 19c1,-17 -2,-32 -9,-44 -7,-13 -16,-23 -28,-30 -12,-7 -26,-10 -42,-10 -16,0 -29,3 -41,10 -12,7 -21,17 -28,30 -6,13 -10,28 -10,45l0 20c0,19 4,35 12,48 8,14 19,24 33,32 15,7 32,10 52,10 18,0 34,-2 48,-8 13,-5 26,-13 39,-24l70 72c-18,20 -41,35 -67,46 -27,10 -58,16 -94,16z"/>
   <path id="5" class="fil2" d="M4464 610c-32,0 -63,-4 -94,-12 -30,-7 -55,-16 -74,-28l40 -90c18,10 39,19 62,25 24,6 47,10 70,10 23,0 38,-3 47,-7 8,-5 12,-11 12,-19 0,-8 -4,-13 -12,-17 -8,-3 -19,-6 -32,-8 -13,-1 -28,-4 -43,-6 -16,-2 -32,-5 -48,-9 -16,-4 -31,-10 -44,-18 -14,-9 -24,-20 -32,-34 -8,-14 -12,-31 -12,-53 0,-24 7,-45 21,-64 15,-19 35,-34 63,-45 27,-11 61,-16 100,-16 27,0 54,2 81,8 27,5 50,13 69,24l-40 90c-19,-11 -37,-18 -56,-22 -18,-4 -36,-6 -53,-6 -22,0 -38,2 -47,8 -9,5 -14,11 -14,18 0,8 4,14 12,18 8,3 19,7 32,9 13,2 28,4 44,6 15,2 31,5 47,9 17,4 31,11 44,19 14,8 24,19 32,33 8,13 12,31 12,52 0,24 -7,45 -21,63 -14,19 -35,34 -63,45 -28,11 -62,17 -103,17z"/>
   <polygon id="6" class="fil3" points="1988,455 1988,353 2192,353 2192,455 "/>
   <polygon class="fil2" points="1897,78 1897,414 1897,435 1881,451 1744,588 1729,603 1707,603 1580,603 1528,603 1528,551 1528,328 1608,248 1754,248 1632,370 1632,499 1686,499 1793,393 1793,78 "/>
   <path class="fil3" d="M1528 1087l0 -264 104 0c23,0 43,3 59,11 16,7 29,18 38,32 8,13 13,30 13,49 0,19 -5,36 -13,49 -9,14 -22,25 -38,32 -16,7 -36,11 -59,11l-83 0 17 -18 0 98 -38 0zm177 0l-67 -96 40 0 68 96 -41 0zm-139 -94l-17 -18 81 0c25,0 43,-6 55,-16 13,-10 19,-25 19,-44 0,-19 -6,-33 -19,-44 -12,-10 -30,-15 -55,-15l-81 0 17 -19 0 156zm446 -56l136 0 0 32 -136 0 0 -32zm3 117l154 0 0 33 -192 0 0 -264 187 0 0 33 -149 0 0 198zm509 36c-21,0 -39,-3 -57,-10 -17,-6 -32,-16 -44,-28 -13,-12 -23,-27 -30,-43 -7,-16 -10,-34 -10,-54 0,-20 3,-38 10,-54 7,-16 17,-31 30,-43 13,-12 28,-22 45,-28 17,-7 36,-10 56,-10 21,0 41,3 58,10 17,7 32,17 44,31l-23 23c-11,-11 -23,-18 -36,-23 -12,-5 -26,-8 -41,-8 -15,0 -29,3 -42,8 -13,5 -24,12 -34,21 -9,9 -17,20 -22,32 -5,13 -7,26 -7,41 0,14 2,28 7,40 5,13 13,24 22,33 10,9 21,16 34,21 13,5 26,8 42,8 14,0 27,-3 40,-7 13,-4 25,-12 36,-22l22 29c-13,11 -29,19 -46,25 -18,5 -36,8 -54,8zm64 -38l0 -98 36 0 0 103 -36 -5zm282 35l0 -264 38 0 0 264 -38 0zm369 3c-20,0 -40,-3 -58,-9 -19,-6 -33,-14 -44,-24l14 -29c10,8 23,16 39,21 16,6 32,9 49,9 15,0 27,-2 37,-5 10,-4 17,-8 21,-15 5,-6 7,-13 7,-21 0,-9 -3,-16 -9,-22 -6,-5 -13,-10 -23,-13 -9,-3 -20,-6 -31,-9 -11,-2 -23,-5 -34,-9 -12,-3 -22,-7 -32,-13 -9,-5 -17,-12 -22,-21 -6,-9 -9,-21 -9,-35 0,-13 3,-26 11,-37 7,-12 18,-21 33,-28 15,-7 34,-10 57,-10 15,0 31,2 46,6 15,4 28,10 39,17l-12 30c-12,-7 -24,-13 -36,-16 -13,-3 -25,-5 -37,-5 -15,0 -27,2 -37,6 -9,3 -16,8 -21,15 -4,6 -6,13 -6,21 0,9 3,17 9,22 6,6 13,10 23,13 9,4 20,7 31,9 11,3 23,6 34,9 12,3 22,8 31,13 10,5 18,12 23,21 6,9 9,20 9,34 0,13 -4,26 -11,37 -7,12 -18,21 -34,28 -15,7 -34,10 -57,10zm380 -3l0 -231 -90 0 0 -33 218 0 0 33 -90 0 0 231 -38 0zm344 0l0 -264 103 0c23,0 43,3 59,11 16,7 29,18 38,32 9,13 13,30 13,49 0,19 -4,36 -13,49 -9,14 -22,25 -38,32 -16,7 -36,11 -59,11l-83 0 17 -18 0 98 -37 0zm176 0l-67 -96 41 0 68 96 -42 0zm-139 -94l-17 -18 82 0c24,0 42,-6 55,-16 12,-10 18,-25 18,-44 0,-19 -6,-33 -18,-44 -13,-10 -31,-15 -55,-15l-82 0 17 -19 0 156zm472 94l0 -101 8 23 -113 -186 40 0 96 157 -22 0 96 -157 37 0 -113 186 8 -23 0 101 -37 0z"/>
  </g>
 </g>
</svg>
