<?xml version="1.0" encoding="UTF-8"?>
<!DOCTYPE svg PUBLIC "-//W3C//DTD SVG 1.0//EN" "http://www.w3.org/TR/2001/REC-SVG-20010904/DTD/svg10.dtd">
<!-- Creator: CorelDRAW X7 -->
<svg xmlns="http://www.w3.org/2000/svg" xml:space="preserve" width="800px" height="800px" version="1.0" style="shape-rendering:geometricPrecision; text-rendering:geometricPrecision; image-rendering:optimizeQuality; fill-rule:evenodd; clip-rule:evenodd"
viewBox="0 0 800 800"
 xmlns:xlink="http://www.w3.org/1999/xlink">
 <defs>
  <style type="text/css">
   <![CDATA[
    .fil0 {fill:none}
    .fil2 {fill:#003399}
    .fil3 {fill:#003399;fill-rule:nonzero}
    .fil1 {fill:#0053BA;fill-rule:nonzero}
   ]]>
  </style>
 </defs>
 <g id="Layer_x0020_1">
  <metadata id="CorelCorpID_0Corel-Layer"/>
  <rect class="fil0" width="800" height="800"/>
  <g id="_1883457738944">
   <g>
    <path class="fil1" d="M335 332c12,-1 23,9 23,21 1,12 -8,23 -21,23 -18,1 -36,-2 -54,-8 -17,-6 -33,-15 -47,-27 -28,-26 -44,-61 -46,-97 -2,-36 10,-72 36,-101 26,-29 61,-44 96,-46 36,-2 73,10 101,36 14,12 25,27 33,43 3,6 5,12 7,18 11,0 21,3 30,11 17,16 19,43 3,60 -16,17 -43,19 -60,3 -13,-12 -17,-30 -12,-46 -1,-9 -4,-18 -8,-27 -5,-11 -13,-21 -22,-29 -20,-18 -45,-26 -69,-25 -25,2 -49,12 -66,32 -18,19 -26,44 -24,69 1,24 11,48 31,66 10,8 20,14 32,19 12,4 24,6 37,5z"/>
    <path class="fil2" d="M302 268c-18,-16 -19,-42 -4,-60 16,-17 43,-19 60,-3 14,12 18,31 11,47 2,9 5,18 9,26 5,11 13,21 22,30 20,18 45,26 70,25 24,-2 48,-12 66,-32 18,-20 26,-45 24,-70 -1,-24 -12,-48 -31,-66 -10,-8 -21,-15 -33,-19 -12,-4 -24,-6 -37,-5 -12,0 -22,-9 -22,-21 -1,-12 8,-22 20,-22 18,-1 37,1 54,7 17,6 33,16 46,28 29,26 44,61 46,96 2,36 -9,72 -35,101 -26,28 -61,44 -96,46 -36,2 -72,-10 -101,-36 -13,-12 -24,-27 -32,-43 -3,-6 -5,-12 -7,-18 -11,0 -22,-3 -30,-11z"/>
   </g>
   <path class="fil3" d="M640 670l0 33 -14 0 0 -33 -32 -38 18 0 21 25 20 -25 19 0 -32 38zm-441 0l-14 0 0 -23 -31 0c-8,0 -11,3 -11,11l0 20c0,7 3,11 11,11l45 0 0 14 -47 0c-16,0 -24,-8 -24,-23l0 -24c0,-16 8,-24 24,-24l33 0 14 0 0 38zm336 -16l0 49 -15 0 0 -71 15 0 42 50 0 -50 14 0 0 71 -14 0 -42 -49zm-33 49l-23 -53 -23 53 -15 0 30 -71 16 0 30 71 -15 0zm-122 -42l45 0c8,0 12,-3 12,-7 0,-5 -4,-7 -12,-7l-45 0 0 -15 47 0c16,0 24,8 24,22 0,14 -8,21 -24,21l-47 0 0 -14zm-79 2l0 40 -14 0 0 -71 14 0 28 56 28 -56 15 0 0 71 -14 0 0 -40 -21 40 0 0 -16 0 -20 -40zm-46 40l-24 0 0 0c-15,0 -23,-8 -23,-23l0 -19 14 0 0 16c0,8 4,12 12,12l19 0c7,0 11,-4 11,-12l0 -19c0,-7 -3,-11 -11,-11l0 0 0 0 -22 0 -22 0c3,-10 10,-15 22,-15l24 0c16,0 23,8 23,24l0 24c0,15 -7,23 -23,23z"/>
   <path class="fil1" d="M607 491l0 14 -71 0 0 -71 15 0 0 57 56 0zm57 64l0 49 -14 0 0 -71 14 0 42 50 0 -50 14 0 0 71 -14 0 -42 -49zm-472 -8l0 -14 38 0 0 14 0 33c0,16 -8,24 -24,24l-24 0c-15,0 -23,-8 -23,-24l0 -47 14 0 0 46c0,7 4,11 11,11l20 0c8,0 11,-4 11,-12l0 -31 -23 0zm-42 24l-14 0 0 -24 -31 0c-7,0 -11,4 -11,12l0 20c0,7 4,11 11,11l45 0 0 14 -47 0c-16,0 -23,-8 -23,-24l0 -23c0,-16 7,-24 23,-24l47 0 0 38zm112 5c-16,0 -24,-7 -24,-21 0,-15 8,-22 24,-22l47 0 0 14 -45 0c-8,0 -12,3 -12,8 0,4 4,7 12,7l21 0c16,0 24,7 24,21 0,14 -8,21 -24,21l-47 0 0 -14 45 0c8,0 12,-2 12,-7 0,-5 -4,-7 -12,-7l-21 0zm84 -29l-29 0 0 -14 71 0 0 14 -28 0 0 57 -14 0 0 -57zm95 57l-24 0 0 0c-15,0 -23,-8 -23,-24l0 -18 14 0 0 16c0,8 4,12 12,12l19 0c8,0 12,-4 12,-12l0 -19c0,-8 -4,-12 -12,-12l-5 0 -17 0 -22 0c3,-9 10,-14 22,-14l24 0c16,0 24,8 24,24l0 23c0,16 -8,24 -24,24zm46 -14l0 -24 -14 0 0 24 0 14 47 0c16,0 24,-8 24,-24l0 -23c0,-16 -8,-24 -24,-24l-47 0 0 14 45 0c8,0 12,4 12,12l0 20c0,7 -4,11 -12,11l-31 0zm80 14l-15 0 0 -71 15 0 0 71zm64 0l-23 -53 -23 53 -15 0 30 -71 16 0 31 71 -16 0zm-424 -137l-14 0 0 24 0 14 47 0c16,0 24,-8 24,-24l0 -23c0,-16 -8,-24 -24,-24l-47 0 0 14c15,0 30,0 45,0 8,0 11,4 11,11l0 21c0,7 -3,11 -11,11l-31 0 0 -24zm311 38l-23 -53 -23 53 -15 0 30 -71 16 0 30 71 -15 0zm-93 -57l-28 0 0 -14 70 0 0 14 -28 0 0 57 -14 0 0 -57zm-37 57l-14 0 0 -71 14 0 0 71zm-23 -38l0 38 -47 0c-15,0 -23,-8 -23,-24l0 -23c0,-16 8,-24 23,-24l47 0 0 14 -45 0c-7,0 -11,4 -11,12l0 19c0,8 4,12 11,12l31 0 0 -24 14 0zm-79 38l-14 0 0 -71 14 0 0 71z"/>
  </g>
 </g>
</svg>
